<svg xmlns="http://www.w3.org/2000/svg" width="230.976" height="54.432" viewBox="0 0 230.976 54.432">
  <g id="pc_header" transform="translate(0 -21.078)">
    <g id="グループ_46" data-name="グループ 46" transform="translate(26.057 21.078)">
      <g id="グループ_41" data-name="グループ 41" transform="translate(0 0.075)">
        <rect id="長方形_50" data-name="長方形 50" width="3.402" height="1.361" transform="translate(7.083 8.225)" fill="#e64800"/>
        <path id="パス_148" data-name="パス 148" d="M270.974,505.73a8.813,8.813,0,1,0-8.813-8.813A8.813,8.813,0,0,0,270.974,505.73Zm4.593-2.511-3.034-2.311,1.007-1.446h-1.347v3.828h-2.481v-3.828h-1.446l1.247,1.715a12.39,12.39,0,0,1-3.459,1.985l-1.063-1.545,2.764-2.155h-.85v-4.905h8.081v4.905h-1.134a11.159,11.159,0,0,1,3.176,1.673Zm-10.646-11.044h4.792v-1.63h2.481v1.631h4.778v1.772h-12.05Z" transform="translate(-262.161 -488.104)" fill="#e64800"/>
      </g>
      <g id="グループ_42" data-name="グループ 42" transform="translate(23.007 0.075)">
        <rect id="長方形_51" data-name="長方形 51" width="0.978" height="0.61" transform="translate(5.737 10.904)" fill="#e64800"/>
        <path id="パス_149" data-name="パス 149" d="M370.581,508.669V509.9l.78-1.233Z" transform="translate(-364.574 -503.166)" fill="#e64800"/>
        <rect id="長方形_52" data-name="長方形 52" width="0.978" height="0.666" transform="translate(5.737 12.761)" fill="#e64800"/>
        <path id="パス_150" data-name="パス 150" d="M356.949,505.732a8.813,8.813,0,1,0-8.813-8.813A8.813,8.813,0,0,0,356.949,505.732Zm-4.395-9h-1.8v-1.772h1.318v-1.347h-1.035v-1.772h1.035v-1.29h2.07v1.29h1.318v.922l.964-1.531,1.219.737V490.9h5.4v.043a19.342,19.342,0,0,1-.638,4.947,10.018,10.018,0,0,1,1.12,4.452v.1l-3.005,1.035-.539-1.162v2.977h-2.339V492.971c-.411.709-.851,1.361-1.276,1.985h1.063v1.772h-2.367c-.17.213-.326.425-.5.624h2.41v5.94h-5.231V500.4c-.212.2-.34.312-.34.312l-1.035-.822Z" transform="translate(-348.136 -488.106)" fill="#e64800"/>
        <path id="パス_151" data-name="パス 151" d="M392.846,508.7l.284-3.53h-.723v7.018l.893-.5Z" transform="translate(-380.56 -500.606)" fill="#e64800"/>
      </g>
      <path id="パス_152" data-name="パス 152" d="M442.925,505.734a8.813,8.813,0,1,0-8.812-8.813A8.813,8.813,0,0,0,442.925,505.734Zm-6.025-5.8h4.608V493.2h-3.544v-1.772h9.924V493.2h-3.544v6.734h4.607V501.7H436.9Z" transform="translate(-388.098 -488.032)" fill="#e64800"/>
      <g id="グループ_43" data-name="グループ 43" transform="translate(69.022 0.076)">
        <path id="パス_153" data-name="パス 153" d="M551.2,530.381l.964-.624h-2.084a8.839,8.839,0,0,1-.893,1.318l2.367-.156Z" transform="translate(-541.402 -518.612)" fill="#e64800"/>
        <path id="パス_154" data-name="パス 154" d="M528.9,505.736a8.813,8.813,0,1,0-8.813-8.813A8.813,8.813,0,0,0,528.9,505.736Zm-6.043-14.193h2.679c-.014-.284-.028-.581-.028-.893v-.17h2.608v1.063h1.56V490.48h2.481v1.063h2.75v1.772h-2.75v1.035h-2.481v-1.035h-1.559v1.035H526s-.113-.4-.241-1.035h-2.906Zm10.618,3.445v1.772h-9.215v-1.772Zm-10.633,2.495h12.05v1.772h-2.75a14.06,14.06,0,0,1,2.282,2.538l-2.254,1.573-.837-1.276a27.934,27.934,0,0,1-7.117.865h-.184l-.128-2.141.993-.056.808-1.5h-2.864Z" transform="translate(-520.088 -488.11)" fill="#e64800"/>
      </g>
      <g id="グループ_44" data-name="グループ 44" transform="translate(92.029 0.077)">
        <path id="パス_155" data-name="パス 155" d="M627.683,512.361v-1.446H629v-1.446h-.936a18.158,18.158,0,0,1-1.545,2.183l.766-.27C627.428,511.709,627.57,512.049,627.683,512.361Z" transform="translate(-621.047 -503.754)" fill="#e64800"/>
        <path id="パス_156" data-name="パス 156" d="M639.251,521.5h-.439v3.686l.439-.057Z" transform="translate(-630.048 -512.562)" fill="#e64800"/>
        <path id="パス_157" data-name="パス 157" d="M623.761,518.475c-.255.312-.51.6-.737.851l.907-.113Z" transform="translate(-618.485 -510.35)" fill="#e64800"/>
        <path id="パス_158" data-name="パス 158" d="M614.876,505.738a8.813,8.813,0,1,0-8.812-8.813A8.813,8.813,0,0,0,614.876,505.738Zm5.352-13.4a8.166,8.166,0,0,1,1.205,2.226l-1.446.666-.766-2.5Zm-11.611,6.705-.113-1.715.482-.057.737-1.262-1.2-1.6,1.829-3.87,1.588,1.021a26.764,26.764,0,0,1-1.8,2.622c.142.113.3.269.44.4l1.12-1.9,1.333.737v-1.361h.992v-1.517h2.127v1.517h.893c-.043-.44-.085-.893-.113-1.347l1.928-.184.68,4.749h1.73v1.772h-1.474l.113.794.17-.2L621.391,499c-.34.425-.737.851-1.148,1.276l.383,2.651-1.517.4s-.184-.539-.454-1.559c-.993.879-1.787,1.5-1.787,1.5l-.865-.822a14.723,14.723,0,0,1-3.487.468l-.227-1.843,1.02-.142v-1.077l-.283.269-.766-1.233.624-.524q.255.213.425.383v-1.7h-.5c.213.61.354,1.077.354,1.077l-1.29.5-.071-.34c-.085.028-.17.057-.269.085v.879l.425-.269a9.025,9.025,0,0,1,1.021,1.517l-1.191.822-.255-.709V503.3H609.88v-1.559c-.213.468-.4.794-.4.794l-1.162-.524.766-2.892.794.3v-.638C609.185,498.931,608.618,499.044,608.618,499.044Z" transform="translate(-606.064 -488.112)" fill="#e64800"/>
        <path id="パス_159" data-name="パス 159" d="M646.121,523.282l.34-1.262.681.284c-.043-.255-.085-.539-.128-.808h-.893Z" transform="translate(-635.402 -512.562)" fill="#e64800"/>
        <path id="パス_160" data-name="パス 160" d="M646.121,529.424v.624l.794-.113.028.17.6-.695c-.057-.284-.128-.6-.184-.921a6.515,6.515,0,0,1-.652,1.191Z" transform="translate(-635.402 -517.684)" fill="#e64800"/>
        <path id="パス_161" data-name="パス 161" d="M644.731,506.715v.737h-.992V508.9H645C644.9,508.2,644.816,507.481,644.731,506.715Z" transform="translate(-633.656 -501.737)" fill="#e64800"/>
      </g>
      <g id="グループ_45" data-name="グループ 45" transform="translate(115.036 0.077)">
        <path id="パス_162" data-name="パス 162" d="M714.136,526.583c-.071.028-.142.042-.213.071v1.2l.681-.411-.283.071Z" transform="translate(-708.067 -516.289)" fill="#e64800"/>
        <path id="パス_163" data-name="パス 163" d="M711.14,514.256l1.063-.326-.241-.142.525-1.191a13.444,13.444,0,0,1-2.112,2.353l.879-.1Z" transform="translate(-705.467 -506.045)" fill="#e64800"/>
        <rect id="長方形_53" data-name="長方形 53" width="0.865" height="0.95" transform="translate(10.081 12.492)" fill="#e64800"/>
        <path id="パス_164" data-name="パス 164" d="M704.037,528.436c-.255.029-.5.071-.709.085l.709.312Z" transform="translate(-700.307 -517.646)" fill="#e64800"/>
        <path id="パス_165" data-name="パス 165" d="M718.37,521l-1.162.3a7.348,7.348,0,0,1,1.219,1.517v-4.437c-.085.1-.156.2-.241.3l-.695-.411A16.716,16.716,0,0,1,718.37,521Z" transform="translate(-710.473 -510.197)" fill="#e64800"/>
        <rect id="長方形_54" data-name="長方形 54" width="0.865" height="0.95" transform="translate(10.081 9.77)" fill="#e64800"/>
        <rect id="長方形_55" data-name="長方形 55" width="0.865" height="0.95" transform="translate(10.081 7.048)" fill="#e64800"/>
        <path id="パス_166" data-name="パス 166" d="M700.852,505.74a8.813,8.813,0,1,0-8.813-8.813A8.813,8.813,0,0,0,700.852,505.74Zm-6.7-6.694-.142-1.716.567-.057.978-1.318-1.488-1.517,2.3-3.9,1.772,1.106a13.485,13.485,0,0,1-2.042,2.538c.17.1.354.227.525.34l1.417-1.914,1.46,1.063,1.389-3.147,2.126.95s-.383.822-1.021,1.914h1.829l-.666-.369,1.177-2.453,2.013,1.035a9.053,9.053,0,0,1-1.389,1.786h1.559v1.772h-1.4v.95h1.063v1.772h-1.063v.95h1.063v1.772h-1.063v.95h1.715v1.772h-6.833v-2.24l-1.545.964-.553-1.29v2.566h-2.126v-2.084c-.468.652-.922,1.177-.922,1.177l-1.162-.666,1.29-2.764C694.479,499.032,694.153,499.046,694.153,499.046Z" transform="translate(-692.039 -488.114)" fill="#e64800"/>
      </g>
      <path id="パス_167" data-name="パス 167" d="M786.828,505.607a8.891,8.891,0,1,0-8.813-8.891A8.852,8.852,0,0,0,786.828,505.607Zm-2.084-10.036h-3.629v-1.788h4.437v-3.733h2.481v3.733h4.423v1.788h-4.735c-.184.329-.369.629-.567.944l1.517-.815,4.466,5.721-2.155,1.573a31.638,31.638,0,0,1-3.927-6.336,35.247,35.247,0,0,1-5.217,6.293l-1.318-1.116Z" transform="translate(-639.971 -487.825)" fill="#e64800"/>
      <path id="パス_168" data-name="パス 168" d="M872.8,505.744a8.813,8.813,0,1,0-8.813-8.813A8.813,8.813,0,0,0,872.8,505.744Zm-5.9-12.485h1.573l-.681-1.673,1.588-.836a12.049,12.049,0,0,1,1.346,1.914l-1.191.6h1.886l-.751-1.758,1.545-.836a10.834,10.834,0,0,1,1.375,1.914l-1.375.68h1.531l1.772-2.835,2.155,1.389a7.976,7.976,0,0,1-1.4,1.446h2.4v3.318h-2.339v-1.545H869.24v1.545H866.9ZM866.759,499h4.749l-.014-.354.723-1.233h-2.651v-1.772h6.422a6.193,6.193,0,0,1-1.956,3.2c.014.042.028.1.042.156h4.749v1.772h-4.607a8.583,8.583,0,0,1-.567,2.665h-2.013l-.085-2.665h-4.792Z" transform="translate(-702.939 -488.04)" fill="#e64800"/>
    </g>
    <g id="グループ_47" data-name="グループ 47" transform="translate(0 44.231)">
      <path id="パス_169" data-name="パス 169" d="M61.059,624.567v-3.823H74.669V612.6H62.081v-3.823H74.67v-7.745H66.826l-.231.824c-.4,1.45-1.582,2.109-3.328,2.109H61.356l-.791-3.823h.89a1.077,1.077,0,0,0,1.121-.824l1.549-5.009h4.713l-.857,2.867h6.69v-3.493h4.713v3.493H91.807v3.856H79.383v7.745H91.576V612.6H79.382v8.14H92.07v3.823Z" transform="translate(-60.565 -593.293)" fill="#e64800"/>
      <path id="パス_170" data-name="パス 170" d="M1034.433,609.585a2.839,2.839,0,0,1-2.683-1.872l-.842-2.5h-15.132l-.718,2.4a2.883,2.883,0,0,1-2.714,1.966h-3.838v-3.619h1.685a.87.87,0,0,0,.842-.593l1.373-3.775h21.84l1.685,4.056a.675.675,0,0,0,.655.312h1.529v3.619ZM1008.942,630.8v-2.683l7.207-6.583h-7.644v-3.619h29.609v3.619h-16.443l-5.554,5.647h14.633a3.173,3.173,0,0,0,1.061-.156c.062-.031.125-.062.125-.094,0-.062-.156-.156-.468-.25l-2.215-2.215h5.335l2.278,2.371a2.442,2.442,0,0,1,.811,1.622,1.8,1.8,0,0,1-.281.936c-.53.967-1.653,1.4-3.338,1.4Zm.78-15.975v-3.619H1036.9v3.619Z" transform="translate(-807.139 -599.522)" fill="#e64800"/>
      <path id="パス_171" data-name="パス 171" d="M222.278,623.1V601.485h-2.01v-3.823h2.01v-5.833h4.746v5.833h2.01v3.823h-2.01V623.1Zm12-.263-.725-3.823h.692a.7.7,0,0,0,.791-.791v-6.69h-1.45l-.824,9.063c-.363,1.516-1.549,2.241-3.625,2.241h-.593l-.791-3.823h.56a.788.788,0,0,0,.824-.659l.626-6.822h-1.516v-3.856h1.878l.231-2.208h3.823l-.231,2.208h5.042V619.71a2.776,2.776,0,0,1-3.131,3.131Zm8.239-19.18-.725-3.559h3.329a.7.7,0,0,0,.791-.791V597.3H240.14l-2.109,4.515a3.419,3.419,0,0,1-3.329,2.109h-4.119l-.758-3.559h2.538a1.742,1.742,0,0,0,1.747-.89l1.022-2.175h-5.075v-3.691h6.888l.791-1.648h5.009l-.824,1.648h8.6v6.921c0,2.076-1.055,3.131-3.164,3.131Zm3.592,19.18-.692-3.823h.659c.56,0,.824-.264.824-.791v-6.69h-1.648l-.528,9.063c-.362,1.516-1.549,2.241-3.625,2.241H240.5l-.758-3.823h.527a.788.788,0,0,0,.824-.659l.362-6.822h-1.351v-3.856h1.549l.132-2.208h3.823l-.132,2.208h5.372V619.71c0,2.076-1.088,3.131-3.164,3.131Z" transform="translate(-186.343 -591.829)" fill="#e64800"/>
      <path id="パス_172" data-name="パス 172" d="M394.6,617.793v3.164a2.776,2.776,0,0,1-3.131,3.131h-6.986l-.725-3.559h5.306c.56,0,.824-.264.824-.791v-1.944H375.884v-3.559H389.89v-.791l5.174-2.34H377.829V607.51h27.452v2.208h-.132l-8.667,4.515h10.678v3.559ZM381.981,599.37a3.5,3.5,0,0,1-3.493-2.043l-1.878-4.12h4.746l1.153,2.175a.941.941,0,0,0,.923.428h2.109v3.559Zm19.74,7.218v-2.307H381.355v2.307h-4.746v-5.9h29.858v5.9Zm-10.578-7.218a3.518,3.518,0,0,1-3.527-2.043l-1.845-4.12h4.713l1.153,2.175a.965.965,0,0,0,.956.428h1.944v3.559Zm5.635,0-.791-3.559h2.933a1.819,1.819,0,0,0,1.747-.824l1.055-1.911h4.746l-2.076,4.251a3.455,3.455,0,0,1-3.361,2.043Z" transform="translate(-308.902 -592.811)" fill="#e64800"/>
      <path id="パス_173" data-name="パス 173" d="M533.084,624.578v-3.823h13.611v-8.14H534.106v-3.823h12.589v-7.745h-7.843l-.231.824c-.4,1.45-1.582,2.109-3.329,2.109h-1.911l-.791-3.823h.89a1.077,1.077,0,0,0,1.12-.824l1.549-5.009h4.713l-.857,2.867h6.69V593.7h4.713v3.493h12.424v3.856H551.408v7.745H563.6v3.823H551.407v8.14H564.1v3.823Z" transform="translate(-432.32 -593.302)" fill="#e64800"/>
      <path id="パス_174" data-name="パス 174" d="M694.8,614.565l-.717-3.4h2.777a1.632,1.632,0,0,0,1.654-.811l.25-.562H703.5l-1.279,2.746a3.293,3.293,0,0,1-3.151,2.028Zm18.72,14.6a9.106,9.106,0,0,1-2.621-.811l-1.9-.749-2.558,1a5.543,5.543,0,0,1-2.59.686h-8.986l-.655-3.37h8.518a3.3,3.3,0,0,0,1.248-.25l-7.395-2.933v-2.465H694.3v-3.619h2.278v-1.373h4.493v1.373h15.756v-1.373h4.462v1.373h2.5v3.619h-2.5v2.59l-7.363,2.87a6.693,6.693,0,0,0,.718.062h9.142v3.37ZM711.3,609.074v5.959h-4.493v-5.959H694.3v-3.4h12.512v-1.5H695.171l-.5-3.37h22.9a.815.815,0,0,0,.718-.281.927.927,0,0,0,.218-.655v-.187H723v1.872a2.585,2.585,0,0,1-.687,1.747,2.475,2.475,0,0,1-1.966.874H711.3v1.5h12.48v3.4Zm5.522,11.2H701.068v.936l7.831,2.777,7.925-2.652Zm3.931-5.71a5.134,5.134,0,0,1-4.337-1.872l-1.435-2.9h4.711l.53.811a1.267,1.267,0,0,0,1.186.562h2.371v3.4Z" transform="translate(-559.505 -598.014)" fill="#e64800"/>
      <path id="パス_175" data-name="パス 175" d="M874.037,630.8a3.905,3.905,0,0,1-3.089-1.092l-1.56-3.526h-6.209l-1.622,2.714a5.025,5.025,0,0,1-4.212,1.9h-5.3l-.718-2.652h3.869a1.857,1.857,0,0,0,1.4-.53l.9-1.435h-5.023V610.36H880v12.823a2.647,2.647,0,0,1-3,3h-2.06l.78,1.56a2.058,2.058,0,0,0,1.373.406h3.931V630.8Zm-21.185-22.059v-7.145h26.895v4.15a2.647,2.647,0,0,1-3,3Zm22.652,4.743H856.971V615.1H875.5Zm0,4.025H856.97v1.622H875.5Zm0,4.025H856.97v1.5h17.784c.53,0,.749-.25.749-.749Zm-.218-17.285H857.314v1.841h17.192c.531,0,.78-.25.78-.749Z" transform="translate(-683.346 -599.519)" fill="#e64800"/>
    </g>
  </g>
</svg>
