<svg xmlns="http://www.w3.org/2000/svg" width="18.769" height="19.63" viewBox="0 0 18.769 19.63">
  <path id="パス_113" data-name="パス 113" d="M502.272,176.994c.125-1.672.539-4.456.569-4.658,0-.009,0-.016,0-.025.2-3.453,1.5-2.562-2.149-2.146h-.021c-.183.021-2.946.343-4.644.45l-.147-.19c.727-2.309,1.054-3.916-.933-3.916-1.954,0-1.644,1.66-.965,3.887a.144.144,0,0,1-.147.187c-1.7-.128-4.02-.4-4.188-.418h-.021c-2.938-.578-2.214-.982-2.149,2.16v11.043c-.045,2.773-.547,2.332,2.16,2.16a32.6,32.6,0,0,1,4.118.562.144.144,0,0,0,.153-.186c-.626-2.1-.845-3.646,1.038-3.646,1.922,0,1.678,1.506,1,3.694a.144.144,0,0,0,.15.188c1.462-.143,3.463-.538,4.582-.612,3.5-.232,2.768.613,2.16-2.147,0-.008,0-.016,0-.024-.025-.174-.331-2.313-.5-4a.144.144,0,0,1,.187-.151c2.134.652,3.593.859,3.593-1.033s-1.551-1.663-3.665-1.032A.144.144,0,0,1,502.272,176.994Z" transform="translate(-487.355 -166.51)" fill="#fff"/>
</svg>
